<svg viewBox="0 0 16 16" xmlns="http://www.w3.org/2000/svg"><path d="m15.9879375 5.4429375c-.0036875-.019375-.006875-.03875-.0120625-.05775-.00325-.0114375-.007125-.0221875-.01075-.0334375-.0052509-.01688782-.0111512-.03356688-.0176875-.05-.00475-.011375-.010125-.022375-.0153125-.033375-.0071885-.01553192-.0150288-.03075377-.0235-.045625-.006-.011-.0129375-.021375-.0195625-.031875-.0159928-.02489563-.0335708-.04873654-.052625-.071375-.0108808-.01282226-.0222216-.02524704-.034-.03725-.0090625-.0090625-.018125-.018125-.027625-.0269375-.0125081-.0114103-.0255212-.0222545-.039-.0325-.0103125-.008-.0204375-.01625-.03125-.0235625-.0038125-.00275-.0073125-.006-.011375-.008625l-7.312-4.875c-.23084029-.1540723-.53172221-.1540723-.7625625 0l-7.3125 4.874875c-.0040625.0025625-.00725.0058125-.011375.008625-.01075.0075-.020875.0155-.03125.0235-.01327902.01042955-.02628345.02120406-.039.0323125-.00944173.0086299-.01857254.01759393-.027375.026875-.0120625.012125-.02325.024375-.03425.0373125-.008125.0096875-.0159375.019375-.0235.0301875-.0103125.0135625-.0198125.027375-.0290625.0418125-.0066875.0105625-.013375.020875-.019625.031875-.00838672.01474759-.0161437.02984451-.02325.04525-.0051875.011-.01075.0221875-.0153125.033375-.0066875.016375-.0125.0331875-.017875.05-.003625.01125-.0075.0221875-.0105625.0323125-.005.0189375-.008625.038125-.0120625.05775-.001875.0099375-.0043125.019625-.005625.02975-.003875.0296875-.006.0594375-.006.0898125v4.876c0 .030125.002125.0603125.0064375.0898125.0015625.0108125.004375.019375.0065.02975.0034375.019375.0064375.03875.0129375.0581875.003.01075.0064375.0215625.01075.033375.005375.01725.01075.0345.01725.05025.0045.01075.01075.0215.0150625.0323125.007125.0150625.015125.030125.02375.045875.006.01075.012875.0215625.019375.0314375.00925.015125.019375.0280625.030125.0409375.0075625.0108125.015125.019375.02375.02975.0109375.0129375.0215.025875.0344375.0373125.0088125.0085625.01725.019375.028.0258125.0125.0108125.025875.0215625.03875.03275.010375.008625.021625.015125.0301875.0235.004125.002125.0065.0064375.0108125.008375l7.3105 4.8775c.11260933.0760145.24551236.1163298.381375.1156875.1357193-.0002665.26835743-.0404796.381375-.115625l7.3125-4.875c.0040625-.0025.0075-.0055625.011375-.008375.01075-.0075.020875-.0155.03125-.0234375.013375-.010625.0265-.0215625.039-.03275.0094375-.0084375.0185-.0176875.0275625-.02675.0207414-.0209322.0399572-.0433228.0575-.067.010375-.0135625.019875-.0275625.029125-.0418125.0066875-.0103125.013375-.020875.019625-.0314375.008625-.015125.016125-.030375.0234375-.045875.0051875-.011.010625-.022.0153125-.0331875.0066875-.016625.0123125-.0334375.0176875-.05025.003625-.0111875.0075-.0221875.01075-.033375.005-.0189375.0084375-.038375.0120625-.05775.00175-.0099375.004375-.019625.005375-.02975.0039375-.0296875.0060625-.0594375.0060625-.0898125v-4.8751875c0-.030375-.002375-.060125-.0060625-.089875-.0016875-.0105625-.0049375-.019125-.0070625-.0296875zm-7.988125 4.1834375-2.4315625-1.6263125 2.4315625-1.6265625 2.4316875 1.6265625zm-.687375-4.4471875-2.98075 1.99375-2.4060625-1.609625 5.386875-3.591125v3.207zm-4.2173125 2.820625-1.7198125 1.150375v-2.3006875zm1.2365625.8278125 2.9808125 1.9935v3.207l-5.386875-3.5915625 2.406125-1.609375v.0004375zm4.355625 1.993125 2.98075-1.9935 2.4063125 1.6093125-5.3870625 3.591125v-3.207zm4.2173125-2.8205 1.7200625-1.1505625v2.3009375l-1.72-1.1508125v.0004375zm-1.2365625-.827375-2.98075-1.9935v-3.2071875l5.3870625 3.5911875-2.40625 1.6095z" fill="#fff"/></svg>